%TF.GenerationSoftware,KiCad,Pcbnew,6.0.5+dfsg-1~bpo11+1*%
%TF.CreationDate,2022-07-07T00:02:15+02:00*%
%TF.ProjectId,z50_ppide,7a35305f-7070-4696-9465-2e6b69636164,rev?*%
%TF.SameCoordinates,Original*%
%TF.FileFunction,Soldermask,Top*%
%TF.FilePolarity,Negative*%
%FSLAX46Y46*%
G04 Gerber Fmt 4.6, Leading zero omitted, Abs format (unit mm)*
G04 Created by KiCad (PCBNEW 6.0.5+dfsg-1~bpo11+1) date 2022-07-07 00:02:15*
%MOMM*%
%LPD*%
G01*
G04 APERTURE LIST*
G04 Aperture macros list*
%AMRoundRect*
0 Rectangle with rounded corners*
0 $1 Rounding radius*
0 $2 $3 $4 $5 $6 $7 $8 $9 X,Y pos of 4 corners*
0 Add a 4 corners polygon primitive as box body*
4,1,4,$2,$3,$4,$5,$6,$7,$8,$9,$2,$3,0*
0 Add four circle primitives for the rounded corners*
1,1,$1+$1,$2,$3*
1,1,$1+$1,$4,$5*
1,1,$1+$1,$6,$7*
1,1,$1+$1,$8,$9*
0 Add four rect primitives between the rounded corners*
20,1,$1+$1,$2,$3,$4,$5,0*
20,1,$1+$1,$4,$5,$6,$7,0*
20,1,$1+$1,$6,$7,$8,$9,0*
20,1,$1+$1,$8,$9,$2,$3,0*%
G04 Aperture macros list end*
%ADD10C,1.700000*%
%ADD11O,1.700000X1.700000*%
%ADD12RoundRect,0.050000X-0.850000X-0.850000X0.850000X-0.850000X0.850000X0.850000X-0.850000X0.850000X0*%
%ADD13O,1.800000X1.800000*%
%ADD14RoundRect,0.050000X0.800000X-1.200000X0.800000X1.200000X-0.800000X1.200000X-0.800000X-1.200000X0*%
%ADD15O,1.700000X2.500000*%
%ADD16RoundRect,0.050000X-0.675000X-0.675000X0.675000X-0.675000X0.675000X0.675000X-0.675000X0.675000X0*%
%ADD17O,1.450000X1.450000*%
%ADD18RoundRect,0.050000X0.900000X-0.900000X0.900000X0.900000X-0.900000X0.900000X-0.900000X-0.900000X0*%
%ADD19C,1.900000*%
%ADD20RoundRect,0.050000X-0.711200X-0.711200X0.711200X-0.711200X0.711200X0.711200X-0.711200X0.711200X0*%
%ADD21C,1.522400*%
%ADD22RoundRect,0.300000X-0.600000X0.600000X-0.600000X-0.600000X0.600000X-0.600000X0.600000X0.600000X0*%
%ADD23C,1.800000*%
%ADD24RoundRect,0.050000X0.800000X-0.800000X0.800000X0.800000X-0.800000X0.800000X-0.800000X-0.800000X0*%
%ADD25C,3.700000*%
%ADD26C,5.700000*%
G04 APERTURE END LIST*
D10*
%TO.C,R104*%
X127715000Y-104510000D03*
D11*
X127715000Y-114670000D03*
%TD*%
D10*
%TO.C,C103*%
X152480000Y-89270000D03*
X152480000Y-91770000D03*
%TD*%
%TO.C,C102*%
X152480000Y-103280000D03*
X152480000Y-105780000D03*
%TD*%
%TO.C,C101*%
X180420000Y-76570000D03*
X180420000Y-79070000D03*
%TD*%
D12*
%TO.C,J102*%
X193755000Y-100700000D03*
D13*
X196295000Y-100700000D03*
X193755000Y-103240000D03*
X196295000Y-103240000D03*
X193755000Y-105780000D03*
X196295000Y-105780000D03*
X193755000Y-108320000D03*
X196295000Y-108320000D03*
X193755000Y-110860000D03*
X196295000Y-110860000D03*
X193755000Y-113400000D03*
X196295000Y-113400000D03*
X193755000Y-115940000D03*
X196295000Y-115940000D03*
X193755000Y-118480000D03*
X196295000Y-118480000D03*
%TD*%
D14*
%TO.C,U101*%
X156295000Y-110875000D03*
D15*
X158835000Y-110875000D03*
X161375000Y-110875000D03*
X163915000Y-110875000D03*
X166455000Y-110875000D03*
X168995000Y-110875000D03*
X171535000Y-110875000D03*
X174075000Y-110875000D03*
X176615000Y-110875000D03*
X179155000Y-110875000D03*
X179155000Y-103255000D03*
X176615000Y-103255000D03*
X174075000Y-103255000D03*
X171535000Y-103255000D03*
X168995000Y-103255000D03*
X166455000Y-103255000D03*
X163915000Y-103255000D03*
X161375000Y-103255000D03*
X158835000Y-103255000D03*
X156295000Y-103255000D03*
%TD*%
D16*
%TO.C,J103*%
X114920000Y-57430000D03*
D17*
X116920000Y-57430000D03*
X114920000Y-59430000D03*
X116920000Y-59430000D03*
X114920000Y-61430000D03*
X116920000Y-61430000D03*
X114920000Y-63430000D03*
X116920000Y-63430000D03*
X114920000Y-65430000D03*
X116920000Y-65430000D03*
X114920000Y-67430000D03*
X116920000Y-67430000D03*
X114920000Y-69430000D03*
X116920000Y-69430000D03*
X114920000Y-71430000D03*
X116920000Y-71430000D03*
X114920000Y-73430000D03*
X116920000Y-73430000D03*
X114920000Y-75430000D03*
X116920000Y-75430000D03*
X114920000Y-77430000D03*
X116920000Y-77430000D03*
X114920000Y-79430000D03*
X116920000Y-79430000D03*
X114920000Y-81430000D03*
X116920000Y-81430000D03*
X114920000Y-83430000D03*
X116920000Y-83430000D03*
X114920000Y-85430000D03*
X116920000Y-85430000D03*
X114920000Y-87430000D03*
X116920000Y-87430000D03*
X114920000Y-89430000D03*
X116920000Y-89430000D03*
X114920000Y-91430000D03*
X116920000Y-91430000D03*
X114920000Y-93430000D03*
X116920000Y-93430000D03*
X114920000Y-95430000D03*
X116920000Y-95430000D03*
X114920000Y-97430000D03*
X116920000Y-97430000D03*
X114920000Y-99430000D03*
X116920000Y-99430000D03*
%TD*%
D18*
%TO.C,D101*%
X107620000Y-112230000D03*
D19*
X107620000Y-109690000D03*
%TD*%
D10*
%TO.C,R103*%
X124540000Y-104510000D03*
D11*
X124540000Y-114670000D03*
%TD*%
D14*
%TO.C,U102*%
X156290000Y-96890000D03*
D15*
X158830000Y-96890000D03*
X161370000Y-96890000D03*
X163910000Y-96890000D03*
X166450000Y-96890000D03*
X168990000Y-96890000D03*
X171530000Y-96890000D03*
X171530000Y-89270000D03*
X168990000Y-89270000D03*
X166450000Y-89270000D03*
X163910000Y-89270000D03*
X161370000Y-89270000D03*
X158830000Y-89270000D03*
X156290000Y-89270000D03*
%TD*%
D20*
%TO.C,U103*%
X167720000Y-63870000D03*
D21*
X165180000Y-61330000D03*
X165180000Y-63870000D03*
X162640000Y-61330000D03*
X162640000Y-63870000D03*
X160100000Y-61330000D03*
X157560000Y-63870000D03*
X160100000Y-63870000D03*
X157560000Y-66410000D03*
X160100000Y-66410000D03*
X157560000Y-68950000D03*
X160100000Y-68950000D03*
X157560000Y-71490000D03*
X160100000Y-71490000D03*
X157560000Y-74030000D03*
X160100000Y-74030000D03*
X157560000Y-76570000D03*
X160100000Y-79110000D03*
X160100000Y-76570000D03*
X162640000Y-79110000D03*
X162640000Y-76570000D03*
X165180000Y-79110000D03*
X165180000Y-76570000D03*
X167720000Y-79110000D03*
X167720000Y-76570000D03*
X170260000Y-79110000D03*
X170260000Y-76570000D03*
X172800000Y-79110000D03*
X175340000Y-76570000D03*
X172800000Y-76570000D03*
X175340000Y-74030000D03*
X172800000Y-74030000D03*
X175340000Y-71490000D03*
X172800000Y-71490000D03*
X175340000Y-68950000D03*
X172800000Y-68950000D03*
X175340000Y-66410000D03*
X172800000Y-66410000D03*
X175340000Y-63870000D03*
X172800000Y-61330000D03*
X172800000Y-63870000D03*
X170260000Y-61330000D03*
X170260000Y-63870000D03*
X167720000Y-61330000D03*
%TD*%
D22*
%TO.C,J101*%
X180480000Y-118650000D03*
D23*
X180480000Y-121190000D03*
X177940000Y-118650000D03*
X177940000Y-121190000D03*
X175400000Y-118650000D03*
X175400000Y-121190000D03*
X172860000Y-118650000D03*
X172860000Y-121190000D03*
X170320000Y-118650000D03*
X170320000Y-121190000D03*
X167780000Y-118650000D03*
X167780000Y-121190000D03*
X165240000Y-118650000D03*
X165240000Y-121190000D03*
X162700000Y-118650000D03*
X162700000Y-121190000D03*
X160160000Y-118650000D03*
X160160000Y-121190000D03*
X157620000Y-118650000D03*
X157620000Y-121190000D03*
X155080000Y-118650000D03*
X155080000Y-121190000D03*
X152540000Y-118650000D03*
X152540000Y-121190000D03*
X150000000Y-118650000D03*
X150000000Y-121190000D03*
X147460000Y-118650000D03*
X147460000Y-121190000D03*
X144920000Y-118650000D03*
X144920000Y-121190000D03*
X142380000Y-118650000D03*
X142380000Y-121190000D03*
X139840000Y-118650000D03*
X139840000Y-121190000D03*
X137300000Y-118650000D03*
X137300000Y-121190000D03*
X134760000Y-118650000D03*
X134760000Y-121190000D03*
X132220000Y-118650000D03*
X132220000Y-121190000D03*
X129680000Y-118650000D03*
X129680000Y-121190000D03*
X127140000Y-118650000D03*
X127140000Y-121190000D03*
X124600000Y-118650000D03*
X124600000Y-121190000D03*
X122060000Y-118650000D03*
X122060000Y-121190000D03*
X119520000Y-118650000D03*
X119520000Y-121190000D03*
%TD*%
D24*
%TO.C,RN101*%
X189310000Y-118480000D03*
D11*
X189310000Y-115940000D03*
X189310000Y-113400000D03*
X189310000Y-110860000D03*
X189310000Y-108320000D03*
X189310000Y-105780000D03*
X189310000Y-103240000D03*
X189310000Y-100700000D03*
%TD*%
D10*
%TO.C,R101*%
X118190000Y-104510000D03*
D11*
X118190000Y-114670000D03*
%TD*%
D25*
%TO.C,H101*%
X186360000Y-57620000D03*
D26*
X186360000Y-57620000D03*
%TD*%
D10*
%TO.C,R102*%
X121365000Y-104510000D03*
D11*
X121365000Y-114670000D03*
%TD*%
M02*
