M48
; DRILL file {KiCad 6.0.5+dfsg-1~bpo11+1} date Thu 07 Jul 2022 00:02:11 CEST
; FORMAT={-:-/ absolute / inch / decimal}
; #@! TF.CreationDate,2022-07-07T00:02:11+02:00
; #@! TF.GenerationSoftware,Kicad,Pcbnew,6.0.5+dfsg-1~bpo11+1
; #@! TF.FileFunction,MixedPlating,1,2
FMAT,2
INCH
; #@! TA.AperFunction,Plated,PTH,ViaDrill
T1C0.0157
; #@! TA.AperFunction,Plated,PTH,ComponentDrill
T2C0.0315
; #@! TA.AperFunction,Plated,PTH,ComponentDrill
T3C0.0354
; #@! TA.AperFunction,Plated,PTH,ComponentDrill
T4C0.0394
; #@! TA.AperFunction,Plated,PTH,ComponentDrill
T5C0.1260
%
G90
G05
T1
X4.5531Y-4.1646
X4.8348Y-2.7777
X5.0004Y-3.3461
X5.2227Y-3.0369
X5.3605Y-3.1611
X5.3756Y-3.0738
X5.5831Y-3.4696
X5.7031Y-3.4146
X5.7642Y-3.3461
X5.8209Y-2.9352
X5.8431Y-3.3096
X5.8529Y-3.3646
X5.8922Y-3.3657
X6.024Y-2.7004
X6.0476Y-3.2043
X6.1881Y-3.1026
X6.2741Y-3.3208
X6.6028Y-3.3657
X6.6028Y-3.413
X6.6481Y-4.2446
X6.8581Y-3.2398
T2
X4.5244Y-2.261
X4.5244Y-2.3398
X4.5244Y-2.4185
X4.5244Y-2.4972
X4.5244Y-2.576
X4.5244Y-2.6547
X4.5244Y-2.7335
X4.5244Y-2.8122
X4.5244Y-2.8909
X4.5244Y-2.9697
X4.5244Y-3.0484
X4.5244Y-3.1272
X4.5244Y-3.2059
X4.5244Y-3.2846
X4.5244Y-3.3634
X4.5244Y-3.4421
X4.5244Y-3.5209
X4.5244Y-3.5996
X4.5244Y-3.6783
X4.5244Y-3.7571
X4.5244Y-3.8358
X4.5244Y-3.9146
X4.6031Y-2.261
X4.6031Y-2.3398
X4.6031Y-2.4185
X4.6031Y-2.4972
X4.6031Y-2.576
X4.6031Y-2.6547
X4.6031Y-2.7335
X4.6031Y-2.8122
X4.6031Y-2.8909
X4.6031Y-2.9697
X4.6031Y-3.0484
X4.6031Y-3.1272
X4.6031Y-3.2059
X4.6031Y-3.2846
X4.6031Y-3.3634
X4.6031Y-3.4421
X4.6031Y-3.5209
X4.6031Y-3.5996
X4.6031Y-3.6783
X4.6031Y-3.7571
X4.6031Y-3.8358
X4.6031Y-3.9146
X4.6531Y-4.1146
X4.6531Y-4.5146
X4.7781Y-4.1146
X4.7781Y-4.5146
X4.9031Y-4.1146
X4.9031Y-4.5146
X5.0281Y-4.1146
X5.0281Y-4.5146
X6.0031Y-3.5146
X6.0031Y-3.613
X6.0031Y-4.0661
X6.0031Y-4.1646
X6.1531Y-3.5146
X6.1531Y-3.8146
X6.1533Y-4.0652
X6.1533Y-4.3652
X6.2031Y-2.5146
X6.2031Y-2.6146
X6.2031Y-2.7146
X6.2031Y-2.8146
X6.2031Y-2.9146
X6.2031Y-3.0146
X6.2531Y-3.5146
X6.2531Y-3.8146
X6.2533Y-4.0652
X6.2533Y-4.3652
X6.3031Y-2.4146
X6.3031Y-2.5146
X6.3031Y-2.6146
X6.3031Y-2.7146
X6.3031Y-2.8146
X6.3031Y-2.9146
X6.3031Y-3.0146
X6.3031Y-3.1146
X6.3531Y-3.5146
X6.3531Y-3.8146
X6.3533Y-4.0652
X6.3533Y-4.3652
X6.4031Y-2.4146
X6.4031Y-2.5146
X6.4031Y-3.0146
X6.4031Y-3.1146
X6.4531Y-3.5146
X6.4531Y-3.8146
X6.4533Y-4.0652
X6.4533Y-4.3652
X6.5031Y-2.4146
X6.5031Y-2.5146
X6.5031Y-3.0146
X6.5031Y-3.1146
X6.5531Y-3.5146
X6.5531Y-3.8146
X6.5533Y-4.0652
X6.5533Y-4.3652
X6.6031Y-2.4146
X6.6031Y-2.5146
X6.6031Y-3.0146
X6.6031Y-3.1146
X6.6531Y-3.5146
X6.6531Y-3.8146
X6.6533Y-4.0652
X6.6533Y-4.3652
X6.7031Y-2.4146
X6.7031Y-2.5146
X6.7031Y-3.0146
X6.7031Y-3.1146
X6.7531Y-3.5146
X6.7531Y-3.8146
X6.7533Y-4.0652
X6.7533Y-4.3652
X6.8031Y-2.4146
X6.8031Y-2.5146
X6.8031Y-2.6146
X6.8031Y-2.7146
X6.8031Y-2.8146
X6.8031Y-2.9146
X6.8031Y-3.0146
X6.8031Y-3.1146
X6.8533Y-4.0652
X6.8533Y-4.3652
X6.9031Y-2.5146
X6.9031Y-2.6146
X6.9031Y-2.7146
X6.9031Y-2.8146
X6.9031Y-2.9146
X6.9031Y-3.0146
X6.9533Y-4.0652
X6.9533Y-4.3652
X7.0533Y-4.0652
X7.0533Y-4.3652
X7.1031Y-3.0146
X7.1031Y-3.113
X7.4531Y-3.9646
X7.4531Y-4.0646
X7.4531Y-4.1646
X7.4531Y-4.2646
X7.4531Y-4.3646
X7.4531Y-4.4646
X7.4531Y-4.5646
X7.4531Y-4.6646
T3
X4.237Y-4.3185
X4.237Y-4.4185
T4
X4.7055Y-4.6713
X4.7055Y-4.7713
X4.8055Y-4.6713
X4.8055Y-4.7713
X4.9055Y-4.6713
X4.9055Y-4.7713
X5.0055Y-4.6713
X5.0055Y-4.7713
X5.1055Y-4.6713
X5.1055Y-4.7713
X5.2055Y-4.6713
X5.2055Y-4.7713
X5.3055Y-4.6713
X5.3055Y-4.7713
X5.4055Y-4.6713
X5.4055Y-4.7713
X5.5055Y-4.6713
X5.5055Y-4.7713
X5.6055Y-4.6713
X5.6055Y-4.7713
X5.7055Y-4.6713
X5.7055Y-4.7713
X5.8055Y-4.6713
X5.8055Y-4.7713
X5.9055Y-4.6713
X5.9055Y-4.7713
X6.0055Y-4.6713
X6.0055Y-4.7713
X6.1055Y-4.6713
X6.1055Y-4.7713
X6.2055Y-4.6713
X6.2055Y-4.7713
X6.3055Y-4.6713
X6.3055Y-4.7713
X6.4055Y-4.6713
X6.4055Y-4.7713
X6.5055Y-4.6713
X6.5055Y-4.7713
X6.6055Y-4.6713
X6.6055Y-4.7713
X6.7055Y-4.6713
X6.7055Y-4.7713
X6.8055Y-4.6713
X6.8055Y-4.7713
X6.9055Y-4.6713
X6.9055Y-4.7713
X7.0055Y-4.6713
X7.0055Y-4.7713
X7.1055Y-4.6713
X7.1055Y-4.7713
X7.6281Y-3.9646
X7.6281Y-4.0646
X7.6281Y-4.1646
X7.6281Y-4.2646
X7.6281Y-4.3646
X7.6281Y-4.4646
X7.6281Y-4.5646
X7.6281Y-4.6646
X7.7281Y-3.9646
X7.7281Y-4.0646
X7.7281Y-4.1646
X7.7281Y-4.2646
X7.7281Y-4.3646
X7.7281Y-4.4646
X7.7281Y-4.5646
X7.7281Y-4.6646
T5
X7.337Y-2.2685
T0
M30
